<svg width="12" height="14" viewBox="0 0 12 14" fill="none" xmlns="http://www.w3.org/2000/svg">
<path d="M6 3.5C5.53851 3.5 5.08738 3.63685 4.70367 3.89324C4.31995 4.14963 4.02088 4.51404 3.84428 4.94041C3.66768 5.36677 3.62147 5.83592 3.7115 6.28854C3.80153 6.74117 4.02376 7.15693 4.35008 7.48325C4.67641 7.80957 5.09217 8.0318 5.54479 8.12183C5.99741 8.21186 6.46657 8.16566 6.89293 7.98905C7.31929 7.81245 7.6837 7.51338 7.94009 7.12966C8.19648 6.74595 8.33333 6.29482 8.33333 5.83333C8.33333 5.21449 8.0875 4.621 7.64991 4.18342C7.21233 3.74583 6.61884 3.5 6 3.5ZM6 7C5.76925 7 5.54369 6.93158 5.35183 6.80338C5.15998 6.67519 5.01044 6.49298 4.92214 6.2798C4.83384 6.06662 4.81073 5.83204 4.85575 5.60573C4.90077 5.37942 5.01188 5.17154 5.17504 5.00838C5.3382 4.84521 5.54608 4.7341 5.77239 4.68908C5.9987 4.64407 6.23328 4.66717 6.44646 4.75547C6.65964 4.84378 6.84185 4.99331 6.97005 5.18517C7.09824 5.37703 7.16667 5.60259 7.16667 5.83333C7.16667 6.14275 7.04375 6.4395 6.82496 6.65829C6.60616 6.87708 6.30942 7 6 7Z" fill="#727272"/>
<path d="M6 13.9999C5.5088 14.0025 5.02415 13.8873 4.58662 13.664C4.14909 13.4407 3.77143 13.1158 3.48525 12.7166C1.26217 9.65003 0.134583 7.3447 0.134583 5.8642C0.134583 4.30859 0.752544 2.8167 1.85252 1.71672C2.9525 0.616741 4.44439 -0.0012207 6 -0.0012207C7.5556 -0.0012207 9.0475 0.616741 10.1475 1.71672C11.2475 2.8167 11.8654 4.30859 11.8654 5.8642C11.8654 7.3447 10.7378 9.65003 8.51475 12.7166C8.22857 13.1158 7.8509 13.4407 7.41338 13.664C6.97585 13.8873 6.4912 14.0025 6 13.9999ZM6 1.2722C4.78224 1.27359 3.61476 1.75795 2.75367 2.61904C1.89259 3.48012 1.40822 4.64761 1.40683 5.86536C1.40683 7.03786 2.51108 9.20611 4.51542 11.9705C4.68557 12.2049 4.9088 12.3957 5.16683 12.5272C5.42487 12.6587 5.71038 12.7273 6 12.7273C6.28962 12.7273 6.57513 12.6587 6.83317 12.5272C7.0912 12.3957 7.31443 12.2049 7.48458 11.9705C9.48892 9.20611 10.5932 7.03786 10.5932 5.86536C10.5918 4.64761 10.1074 3.48012 9.24632 2.61904C8.38524 1.75795 7.21776 1.27359 6 1.2722Z" fill="#727272"/>
</svg>
